<svg width="256" height="256" viewBox="0 0 256 256" fill="none" xmlns="http://www.w3.org/2000/svg">
  <path d="m128 18 94 40v67c0 61-38 97-94 115-56-18-94-54-94-115V58z" stroke="#009DFF" stroke-width="12" stroke-linejoin="round"/>
  <path d="m128 18 94 40v67c0 61-38 97-94 115-56-18-94-54-94-115V58z" stroke="#009DFF" stroke-width="12" stroke-linejoin="round"/>
  <path d="M141.44 79.715a12.95 12.95 0 0 0-18.05 0l-48.13 47.2a4.314 4.314 0 0 1-6.015 0 4.12 4.12 0 0 1 0-5.9l48.13-47.2a21.565 21.565 0 0 1 30.08 0 20.6 20.6 0 0 1 6.02 17.7 21.5 21.5 0 0 1 18.045 5.9l.25.25a20.57 20.57 0 0 1 0 29.5l-43.53 42.685a1.37 1.37 0 0 0 0 1.965l8.94 8.77a4.113 4.113 0 0 1 0 5.9 4.313 4.313 0 0 1-6.015 0l-8.94-8.765a9.593 9.593 0 0 1 0-13.77l43.53-42.69a12.36 12.36 0 0 0 3.736-8.85 12.34 12.34 0 0 0-3.736-8.85l-.25-.245a12.95 12.95 0 0 0-18.035-.015l-35.86 35.17-.01.01-.49.485a4.32 4.32 0 0 1-6.02 0 4.12 4.12 0 0 1-1.246-2.95 4.1 4.1 0 0 1 1.246-2.95L141.455 97.4a12.35 12.35 0 0 0-.015-17.685Z" fill="#009DFF" stroke="#3B88E8" stroke-width="2"/>
  <path d="M141.44 79.715a12.95 12.95 0 0 0-18.05 0l-48.13 47.2a4.314 4.314 0 0 1-6.015 0 4.12 4.12 0 0 1 0-5.9l48.13-47.2a21.565 21.565 0 0 1 30.08 0 20.6 20.6 0 0 1 6.02 17.7 21.5 21.5 0 0 1 18.045 5.9l.25.25a20.57 20.57 0 0 1 0 29.5l-43.53 42.685a1.37 1.37 0 0 0 0 1.965l8.94 8.77a4.113 4.113 0 0 1 0 5.9 4.313 4.313 0 0 1-6.015 0l-8.94-8.765a9.593 9.593 0 0 1 0-13.77l43.53-42.69a12.36 12.36 0 0 0 3.736-8.85 12.34 12.34 0 0 0-3.736-8.85l-.25-.245a12.95 12.95 0 0 0-18.035-.015l-35.86 35.17-.01.01-.49.485a4.32 4.32 0 0 1-6.02 0 4.12 4.12 0 0 1-1.246-2.95 4.1 4.1 0 0 1 1.246-2.95L141.455 97.4a12.35 12.35 0 0 0-.015-17.685Z" fill="#009DFF" stroke="#3B88E8" stroke-width="2"/>
  <path d="M135.425 91.515a4.12 4.12 0 0 0 1.246-2.95 4.12 4.12 0 0 0-1.246-2.95 4.316 4.316 0 0 0-6.02 0l-35.595 34.91a20.575 20.575 0 0 0 0 29.5 21.57 21.57 0 0 0 30.08 0l35.6-34.91a4.113 4.113 0 0 0 0-5.9 4.32 4.32 0 0 0-6.02 0l-35.595 34.91a12.95 12.95 0 0 1-18.05 0 12.35 12.35 0 0 1 0-17.7z" fill="#009DFF" stroke="#3B88E8" stroke-width="2"/>
</svg>
